<?xml version="1.0" encoding="UTF-8"?>
<svg id="Layer_2" data-name="Layer 2" xmlns="http://www.w3.org/2000/svg" viewBox="0 0 1424.05 1424.05">
  <defs>
    <style>
      .cls-1 {
        fill: #cd151b;
      }

      .cls-2 {
        fill: #fff;
      }
    </style>
  </defs>
  <g id="Layer_1-2" data-name="Layer 1">
    <g>
      <g>
        <circle class="cls-1" cx="712.03" cy="712.03" r="555.88"/>
        <path d="M1409.59,568.69c-9.37-45.79-23.35-90.83-41.56-133.88-16.86-42.22-39.95-82.94-65.68-121.01-25.45-37.67-54.67-73.09-86.85-105.27-32.18-32.18-67.6-61.4-105.27-86.85-38.07-25.72-78.78-47.82-121.01-65.68-43.04-18.2-88.08-32.19-133.87-41.55-46.9-9.6-95.12-14.46-143.33-14.46s-96.43,4.87-143.33,14.46c-45.79,9.37-90.83,23.35-133.87,41.56-42.22,17.86-82.94,39.96-121.01,65.68-37.67,25.45-73.09,54.67-105.27,86.85-32.18,32.18-61.4,67.6-86.85,105.27-25.72,38.07-47.82,78.79-65.68,121.01-18.2,43.04-32.19,88.08-41.55,133.87-9.6,46.9-14.46,95.12-14.46,143.33s4.87,96.43,14.46,143.33c9.37,45.79,23.35,90.83,41.56,133.87,17.86,42.22,39.96,82.94,65.68,121.01,25.45,37.67,54.67,73.09,86.85,105.27,32.18,32.18,67.6,61.4,105.27,86.85,38.07,25.72,78.79,47.82,121.01,65.68,43.04,18.2,88.08,32.19,133.87,41.55,46.9,9.6,95.12,14.46,143.33,14.46s96.43-4.87,143.33-14.46c45.79-9.37,90.83-23.35,133.87-41.55,42.22-17.86,82.94-39.96,121.01-65.68,37.67-25.45,73.09-54.67,105.27-86.85,32.18-32.18,61.4-67.6,86.85-105.27,25.72-38.07,47.82-78.79,65.68-121.01,18.2-43.04,32.19-88.08,41.56-133.87,9.6-46.9,14.46-95.12,14.46-143.33s-4.87-96.43-14.46-143.33ZM1242.91,712.03c0,71.68-14.03,141.2-41.71,206.64-26.74,63.21-65.02,119.99-113.78,168.75-48.76,48.76-105.54,87.05-168.75,113.78-65.43,27.68-134.96,41.71-206.64,41.71s-141.2-14.03-206.64-41.71c-63.21-26.74-119.99-65.02-168.75-113.78s-87.04-105.54-113.78-168.75c-27.68-65.43-41.71-134.96-41.71-206.64s14.03-141.2,41.71-206.64c26.74-63.21,65.02-119.99,113.78-168.75s105.54-87.05,168.75-113.78c65.43-27.68,134.96-41.71,206.64-41.71s141.2,14.03,206.64,41.71c63.21,26.74,119.99,65.02,168.75,113.78,48.76,48.76,87.05,105.54,113.78,168.75,27.68,65.43,41.71,134.96,41.71,206.64Z"/>
        <path class="cls-2" d="M159.7,1008.62c-9.2-17.1-17.67-34.78-25.2-52.57-16.02-37.88-28.33-77.53-36.58-117.83-8.45-41.29-12.73-83.75-12.73-126.2s4.28-84.91,12.73-126.2l10.78,2.21c-8.3,40.57-12.51,82.28-12.51,123.99s4.21,83.42,12.51,123.99c8.1,39.59,20.19,78.54,35.93,115.75,7.39,17.47,15.72,34.85,24.75,51.64l-9.69,5.21Z"/>
        <path class="cls-2" d="M1264.54,1008.62l-9.69-5.21c9.04-16.79,17.36-34.17,24.75-51.64,15.74-37.21,27.83-76.16,35.93-115.75,8.3-40.57,12.51-82.28,12.51-123.99s-4.21-83.42-12.51-123.99l10.78-2.21c8.45,41.29,12.73,83.75,12.73,126.2s-4.28,84.9-12.73,126.2c-8.25,40.3-20.55,79.95-36.58,117.83-7.52,17.79-16,35.47-25.2,52.57Z"/>
        <g>
          <path class="cls-2" d="M317.57,494.34h255.71c25.72,0,50.53,5.75,74.43,17.23s45.03,27.1,63.41,46.84c18.38,19.75,32.97,42.83,43.77,69.23,10.79,26.41,16.2,54.54,16.2,84.39s-5.41,57.99-16.2,84.39c-10.8,26.41-25.39,49.49-43.77,69.23-18.38,19.75-39.52,35.37-63.41,46.85s-48.7,17.22-74.43,17.22h-255.71v-435.38ZM667.42,712.03c0-18.34-2.41-35.64-7.23-51.92-4.82-16.28-11.58-30.49-20.29-42.64-8.72-12.15-18.69-21.79-29.92-28.89-11.24-7.11-23.5-10.66-36.8-10.66h-162.33v268.22h162.33c13.3,0,25.56-3.55,36.8-10.66,11.24-7.11,21.21-16.73,29.92-28.88,8.71-12.15,15.47-26.36,20.29-42.64,4.82-16.28,7.23-33.59,7.23-51.93Z"/>
          <path class="cls-2" d="M741.19,494.34h253.31c17.95,0,35.21,3.22,51.77,9.65,16.56,6.43,31.18,15.27,43.83,26.51,12.65,11.26,22.78,24.46,30.37,39.61,7.59,15.15,11.39,31.23,11.39,48.22,0,16.08-3.46,31.34-10.37,45.81-6.91,14.47-16.36,27.21-28.33,38.23,18.81,11.02,34.06,25.61,45.77,43.75,11.7,18.14,17.55,38.01,17.55,59.6,0,17-3.8,33.07-11.39,48.23-7.59,15.16-17.59,28.37-30.01,39.61-12.42,11.26-26.91,20.09-43.46,26.52-16.56,6.44-33.8,9.65-51.74,9.65h-278.7v-435.38ZM1038.57,623.91c0-12.82-4.6-23.68-13.79-32.61-9.19-8.93-20.23-13.39-33.09-13.39h-157.2v268.22h181.83c13.31,0,24.56-4.45,33.74-13.38,9.18-8.93,13.78-19.8,13.78-32.62s-4.56-23.68-13.67-32.61c-9.11-8.93-20.34-13.39-33.66-13.39h-128.9v-84.22h104.09c12.86,0,23.89-4.45,33.08-13.38,9.19-8.93,13.79-19.8,13.79-32.62Z"/>
        </g>
        <g>
          <path class="cls-2" d="M84.01,535.22l9.69-29.13c2.03-6.09,5.17-10.96,9.42-14.6,4.25-3.64,9.08-5.94,14.47-6.89,5.39-.95,10.77-.54,16.12,1.24,5.29,1.76,9.83,4.64,13.61,8.65,3.78,4,6.27,8.75,7.49,14.25,1.21,5.5.81,11.26-1.19,17.29l-9.69,29.13-59.91-19.93ZM135.81,537.08l5.09-15.29c1.08-3.26,1.23-6.36.44-9.3-.79-2.94-2.3-5.49-4.53-7.63-2.22-2.15-4.84-3.72-7.85-4.72-3.01-1-6.03-1.3-9.07-.91s-5.76,1.54-8.15,3.42c-2.4,1.88-4.14,4.45-5.22,7.71l-5.09,15.29,34.38,11.44Z"/>
          <path class="cls-2" d="M191.8,437.08l-6.69,12.96-56.11-28.96,6.69-12.96,56.11,28.96Z"/>
          <path class="cls-2" d="M213.04,313.78l-26.15,36.03,9.16,6.65,19.27-26.54,10.85,7.88-19.27,26.54,20.16,14.63-8.57,11.81-51.1-37.09,34.72-47.84,10.93,7.93Z"/>
          <path class="cls-2" d="M295.21,228.81l-32.33,30.62,7.78,8.22,23.81-22.55,9.22,9.73-23.81,22.55,17.13,18.09-10.59,10.03-43.42-45.84,42.92-40.65,9.29,9.8Z"/>
          <path class="cls-2" d="M392.68,159.72l-38.41,24.71,6.12,9.52,28.54-18.36,7.25,11.28-28.54,18.36,6.23,9.68,38.41-24.71,7.25,11.28-50.67,32.6-34.16-53.1,50.67-32.6,7.31,11.36Z"/>
          <path class="cls-2" d="M441.59,119.43l40.46-16.16c3.78-1.51,7.32-1.97,10.64-1.38,3.31.59,6.18,1.99,8.6,4.19,2.42,2.21,4.28,4.93,5.57,8.17,1.67,4.18,1.99,8.32.96,12.42s-3.51,7.41-7.43,9.93c.19.13.39.25.61.37.22.12.44.3.68.55l22.38,16.97-15.32,6.12-23.05-17.62-16.38,6.54,9.24,23.14-13.55,5.41-23.42-58.64ZM464.34,137.07l26.92-10.75c1.3-.52,2.14-1.33,2.52-2.44.38-1.11.31-2.31-.21-3.6l-.67-1.68c-.54-1.35-1.32-2.29-2.35-2.8-1.03-.51-2.19-.51-3.49,0l-26.92,10.75,4.2,10.51Z"/>
          <path class="cls-2" d="M622.58,80.71l-44.87,8.52,2.11,11.12,33.35-6.33,2.5,13.17-33.35,6.33,2.15,11.3,44.87-8.52,2.5,13.17-59.2,11.24-11.77-62.04,59.2-11.24,2.52,13.27Z"/>
          <path class="cls-2" d="M730.15,101.39l.64-39.36,14.49.23-1.02,63.14-12.68-.21-33.49-39.92-.64,39.36-14.59-.24,1.02-63.14,12.58.2,33.68,39.92Z"/>
          <path class="cls-2" d="M804.52,67.53l60.41,11.49-2.52,13.27-23.04-4.38-9.28,48.77-14.33-2.73,9.27-48.77-23.04-4.38,2.52-13.27Z"/>
          <path class="cls-2" d="M990.98,123.44l35.48,18.78c3.54,1.87,6.16,4.26,7.86,7.17,1.7,2.91,2.5,6,2.42,9.29-.09,3.29-.95,6.48-2.58,9.56-.98,1.85-2.25,3.44-3.81,4.76-1.56,1.32-3.36,2.35-5.4,3.06,1.25,2.39,1.86,4.84,1.82,7.36-.04,2.52-.68,4.96-1.93,7.32-1.66,3.14-3.81,5.68-6.46,7.61s-5.66,3.01-9.04,3.23c-3.39.22-6.88-.63-10.47-2.53l-37.42-19.8,29.54-55.81ZM980.61,174.22l24.52,12.98c1.24.65,2.43.77,3.59.34,1.16-.43,2.07-1.25,2.72-2.49l.84-1.6c.68-1.29.86-2.52.55-3.69-.32-1.17-1.09-2.08-2.33-2.74l-24.52-12.98-5.38,10.17ZM992.26,152.2l22.58,11.95c1.18.62,2.33.73,3.45.32,1.12-.41,2-1.24,2.65-2.47l.84-1.6c.68-1.29.89-2.49.61-3.6-.27-1.11-1.03-2-2.26-2.65l-22.58-11.95-5.29,10Z"/>
          <path class="cls-2" d="M1097.42,186.7l33.93,27.34c3.17,2.55,5.31,5.42,6.42,8.59,1.11,3.18,1.3,6.36.57,9.55-.74,3.19-2.2,6.15-4.38,8.86-2.83,3.51-6.28,5.81-10.35,6.92s-8.18.58-12.3-1.6c-.02.23-.03.47-.02.71,0,.25-.04.53-.14.86l-3.81,27.83-12.84-10.35,4.05-28.73-13.73-11.07-15.63,19.4-11.36-9.15,39.62-49.17ZM1093.2,215.18l22.57,18.19c1.09.88,2.21,1.21,3.36,1,1.15-.21,2.16-.86,3.04-1.95l1.13-1.41c.92-1.13,1.34-2.28,1.29-3.42s-.63-2.16-1.72-3.03l-22.57-18.19-7.1,8.81Z"/>
          <path class="cls-2" d="M1220,325.25l-29.49-34.87-8.64,7.31,21.92,25.92-10.24,8.66-21.92-25.92-8.79,7.43,29.49,34.87-10.24,8.66-38.91-46.01,48.21-40.78,38.91,46.01-10.31,8.72Z"/>
          <path class="cls-2" d="M1283.99,427.56l-22.41-39.79-9.86,5.55,16.65,29.58-11.68,6.58-16.65-29.58-10.03,5.65,22.41,39.79-11.68,6.58-29.56-52.5,55.02-30.98,29.56,52.5-11.77,6.63Z"/>
          <path class="cls-2" d="M1321.28,478.8l9.69,29.13c2.03,6.09,2.43,11.87,1.2,17.33-1.22,5.46-3.71,10.19-7.46,14.19-3.75,3.99-8.3,6.88-13.66,8.66-5.29,1.76-10.65,2.17-16.08,1.23-5.42-.94-10.27-3.25-14.53-6.92-4.26-3.67-7.39-8.53-9.4-14.56l-9.69-29.13,59.92-19.92ZM1278.68,508.33l5.08,15.29c1.08,3.26,2.82,5.83,5.22,7.71,2.39,1.88,5.13,3.02,8.2,3.4,3.07.39,6.11.08,9.11-.92,3.01-1,5.61-2.57,7.81-4.71,2.2-2.14,3.69-4.68,4.48-7.62.79-2.94.65-6.04-.44-9.3l-5.08-15.29-34.38,11.43Z"/>
        </g>
        <g>
          <path class="cls-2" d="M239.37,1075.94l-24.16-37.89-9.53,6.08,17.96,28.16-11.29,7.2-17.96-28.16-9.69,6.18,24.16,37.89-11.29,7.2-31.88-49.99,53.19-33.92,31.88,49.99-11.37,7.25Z"/>
          <path class="cls-2" d="M254.46,1151.42l23.38,25.4-9.85,9.07-33.11-35.95,46.4-42.73,9.72,10.56-36.55,33.66Z"/>
          <path class="cls-2" d="M321.23,1232.82l-11.11-9.08,39.93-48.84,11.11,9.08-39.93,48.84Z"/>
          <path class="cls-2" d="M398.94,1212.55l52.01,30.93-6.89,11.59-19.84-11.8-25.35,42.62-12.34-7.34,25.35-42.62-19.83-11.8,6.9-11.59Z"/>
          <path class="cls-2" d="M544.23,1296.28l-42.23-15.36-3.86,10.62,31.39,11.41-4.58,12.59-31.39-11.41-3.93,10.8,42.23,15.36-4.58,12.59-55.72-20.26,21.56-59.28,55.72,20.26-4.61,12.68Z"/>
          <path class="cls-2" d="M717.23,1321.08l-43.77-1.9-.49,11.29,32.24,1.4-.58,13.38-32.24-1.4-1.08,24.87-14.34-.62,2.73-63.02,58.11,2.52-.58,13.48Z"/>
          <path class="cls-2" d="M787.41,1365.43l-14.27,1.55-6.82-62.71,14.27-1.55,6.82,62.71Z"/>
          <path class="cls-2" d="M827.38,1295.79l58.48-15.55,3.47,13.04-22.3,5.93,12.74,47.93-13.87,3.69-12.74-47.92-22.3,5.93-3.47-13.04Z"/>
          <path class="cls-2" d="M988.18,1279.3l-17.14-35.4,12.83-6.21,27.49,56.77-11.23,5.44-47.37-20.76,17.14,35.4-12.92,6.26-27.49-56.77,11.14-5.4,47.54,20.68Z"/>
          <path class="cls-2" d="M1082.41,1186.44l-35.93,26.98,6.79,9.04,26.71-20.05,8.04,10.71-26.71,20.05,6.9,9.19,35.93-26.98,8.04,10.71-47.41,35.6-37.88-50.44,47.41-35.6,8.1,10.79Z"/>
          <path class="cls-2" d="M1149.26,1162.73l.91.84c1.82,1.67,4.38,1.69,7.69.06,2.57-1.29,5.1-3.3,7.59-6.02,2.75-2.99,4.64-5.76,5.68-8.29,1.18-3.25.76-5.79-1.24-7.64-1.73-1.58-4.1-1.39-7.12.59-1.21.76-2.58,1.88-4.11,3.35-.85.83-1.93,1.96-3.24,3.39-5.63,6.13-11.07,10.15-16.32,12.08-5.25,1.93-10.56.43-15.92-4.5-5.32-4.88-7.35-10.32-6.11-16.31s4.6-11.96,10.05-17.9c3.17-3.45,6.73-6.25,10.68-8.4,3.95-2.15,7.99-3.17,12.11-3.08,4.13.1,7.89,1.71,11.3,4.84l1.05.96-9.71,10.57-1.05-.96c-1.77-1.63-4.14-1.76-7.1-.41-2.65,1.3-5.1,3.17-7.34,5.61-2.54,2.76-4.26,5.3-5.18,7.6-1.24,2.85-.91,5.15,1.01,6.91,1.68,1.54,3.9,1.33,6.65-.64,1.12-.75,2.36-1.78,3.73-3.07.77-.74,1.78-1.8,3.05-3.18,5.8-6.31,11.42-10.51,16.86-12.6,5.45-2.09,10.94-.58,16.49,4.51,5.55,5.1,7.64,10.78,6.28,17.04-1.37,6.26-4.88,12.48-10.55,18.65-3.22,3.5-6.84,6.39-10.87,8.68s-8.17,3.44-12.4,3.45c-4.23.02-8.1-1.58-11.59-4.79l-.91-.84,9.65-10.5Z"/>
          <path class="cls-2" d="M1218.57,1076.59l1.04.66c2.09,1.32,4.61.89,7.58-1.31,2.29-1.73,4.43-4.15,6.4-7.27,2.17-3.43,3.55-6.49,4.12-9.16.58-3.41-.28-5.84-2.58-7.29-1.98-1.25-4.28-.64-6.9,1.85-1.06.96-2.21,2.3-3.45,4.03-.69.97-1.55,2.27-2.59,3.91-4.45,7.03-9.09,11.95-13.92,14.78s-10.32,2.29-16.47-1.6c-6.1-3.86-9.07-8.85-8.91-14.97.16-6.12,2.4-12.58,6.72-19.4,2.51-3.96,5.52-7.35,9.02-10.16,3.51-2.81,7.3-4.54,11.38-5.18,4.08-.64,8.07.28,11.97,2.75l1.2.76-7.68,12.13-1.2-.76c-2.03-1.29-4.39-1-7.06.86-2.38,1.75-4.46,4.02-6.23,6.82-2.01,3.17-3.26,5.97-3.75,8.4-.72,3.03.02,5.23,2.22,6.62,1.93,1.22,4.07.62,6.43-1.81.97-.94,2.01-2.17,3.12-3.69.62-.86,1.44-2.09,2.44-3.67,4.58-7.24,9.37-12.37,14.36-15.39,4.99-3.02,10.67-2.52,17.03,1.52,6.37,4.03,9.43,9.25,9.2,15.66-.23,6.4-2.59,13.15-7.08,20.23-2.54,4.02-5.6,7.5-9.16,10.47-3.56,2.96-7.43,4.83-11.59,5.6-4.16.77-8.25-.12-12.26-2.66l-1.04-.66,7.63-12.05Z"/>
        </g>
      </g>
      <g>
        <g>
          <polygon class="cls-2" points="528.26 1050.63 522.26 1081.31 549.58 1096.49 518.56 1100.27 512.56 1130.94 499.38 1102.6 468.35 1106.37 491.24 1085.08 478.06 1056.74 505.38 1071.92 528.26 1050.63"/>
          <polygon class="cls-2" points="618.63 1083.7 619.97 1114.92 650.08 1123.3 620.79 1134.22 622.12 1165.45 602.69 1140.97 573.4 1151.89 590.68 1125.84 571.24 1101.36 601.36 1109.74 618.63 1083.7"/>
          <polygon class="cls-2" points="714.22 1094.73 722.82 1124.78 754.05 1125.89 728.13 1143.35 736.72 1173.4 712.1 1154.14 686.18 1171.6 696.89 1142.24 672.27 1122.97 703.51 1124.09 714.22 1094.73"/>
          <polygon class="cls-2" points="809.74 1083.11 825.12 1110.33 855.75 1104.11 834.63 1127.14 850 1154.35 821.57 1141.38 800.44 1164.41 803.99 1133.36 775.56 1120.38 806.19 1114.17 809.74 1083.11"/>
          <polygon class="cls-2" points="899.91 1049.5 921.22 1072.37 949.55 1059.17 934.39 1086.5 955.7 1109.36 925.02 1103.39 909.86 1130.73 906.06 1099.7 875.38 1093.73 903.71 1080.53 899.91 1049.5"/>
        </g>
        <g>
          <polygon class="cls-2" points="501.03 296.12 521.85 319.42 550.46 306.82 534.72 333.83 555.55 357.14 525 350.52 509.27 377.53 506.12 346.43 475.57 339.82 504.17 327.21 501.03 296.12"/>
          <polygon class="cls-2" points="604.23 262.23 619.72 289.37 650.32 283.03 629.29 306.15 644.79 333.3 616.3 320.44 595.27 343.56 598.69 312.5 570.2 299.64 600.8 293.29 604.23 262.23"/>
          <polygon class="cls-2" points="712.23 250.65 721.7 280.44 752.96 280.63 727.56 298.84 737.04 328.63 711.86 310.1 686.47 328.32 696.31 298.65 671.13 280.13 702.39 280.32 712.23 250.65"/>
          <polygon class="cls-2" points="820.26 261.9 823.3 293.01 853.83 299.73 825.19 312.24 828.23 343.34 807.48 319.97 778.84 332.47 794.66 305.52 773.91 282.14 804.44 288.86 820.26 261.9"/>
          <polygon class="cls-2" points="923.56 295.49 920.03 326.54 948.48 339.49 917.86 345.74 914.33 376.79 898.93 349.6 868.3 355.84 889.41 332.79 874 305.59 902.45 318.54 923.56 295.49"/>
        </g>
      </g>
    </g>
  </g>
</svg>